<svg xmlns="http://www.w3.org/2000/svg" viewBox="0 0 46.41 46.41"><defs><style>.cls-1{fill:none;stroke:#000;stroke-miterlimit:10;stroke-width:2px;}</style></defs><g id="Layer_2" data-name="Layer 2"><g id="Layer_1-2" data-name="Layer 1"><circle class="cls-1" cx="23.2" cy="23.2" r="22.2"/><path d="M22.8,29a9.2,9.2,0,0,1-3.63.6c-4.89,0-7.4-3-7.4-7.07,0-4.82,3.44-7.51,7.72-7.51a8.39,8.39,0,0,1,3.48.63l-.65,2.54a7,7,0,0,0-2.69-.52c-2.53,0-4.51,1.53-4.51,4.67,0,2.84,1.68,4.62,4.54,4.62a8,8,0,0,0,2.66-.46Z"/><path d="M34.66,29a9.24,9.24,0,0,1-3.63.6c-4.89,0-7.41-3-7.41-7.07,0-4.82,3.44-7.51,7.72-7.51a8.44,8.44,0,0,1,3.49.63l-.65,2.54a7,7,0,0,0-2.69-.52C29,17.64,27,19.17,27,22.31c0,2.84,1.68,4.62,4.53,4.62a8.05,8.05,0,0,0,2.67-.46Z"/></g></g></svg>