<svg xmlns="http://www.w3.org/2000/svg" viewBox="0 0 50 50"><g id="Layer_2" data-name="Layer 2"><g id="Layer_1-2" data-name="Layer 1"><path d="M45,11a5.57,5.57,0,0,0-1,.11V7a1,1,0,0,0-1-1H36.23l-.14.1-.18.13h0a.75.75,0,0,0-.07.12,1.18,1.18,0,0,0-.11.19.74.74,0,0,0,0,.21v.14h0a.74.74,0,0,0,0,.21.49.49,0,0,0,0,.17l.1.14.13.18h0a3,3,0,1,1-4.24.24A2.72,2.72,0,0,1,32,7.59h0l.13-.18.1-.14a.49.49,0,0,0,0-.17.74.74,0,0,0,0-.21h0V6.75a.74.74,0,0,0,0-.21,1.18,1.18,0,0,0-.11-.19A.75.75,0,0,0,32,6.23h0l-.18-.13L31.69,6H20.89A5.57,5.57,0,0,0,21,5,5,5,0,0,0,11,5a5.57,5.57,0,0,0,.11,1H7A1,1,0,0,0,6,7v5.79a.62.62,0,0,0,.07.19V13l.08.09.14.16.16.1.17.08a.65.65,0,0,0,.2,0h.37a.6.6,0,0,0,.19-.06h.06A3.08,3.08,0,0,1,9,13a3,3,0,0,1,0,6,2.94,2.94,0,0,1-1.5-.41H7.44a.6.6,0,0,0-.19-.06H6.88a.65.65,0,0,0-.2,0l-.17.08-.16.1-.14.16a.39.39,0,0,0-.08.09v.06a.62.62,0,0,0-.07.19v9.9A5.43,5.43,0,0,0,5,29,5,5,0,0,0,5,39a5.57,5.57,0,0,0,1-.11V43a1,1,0,0,0,1,1h5.79a.6.6,0,0,0,.19-.06H13l.09-.09.16-.13a.86.86,0,0,0,.1-.16.89.89,0,0,0,.08-.17.65.65,0,0,0,0-.2v-.37a.62.62,0,0,0-.07-.19v-.06A3,3,0,1,1,19,41a2.94,2.94,0,0,1-.41,1.5v.06a.62.62,0,0,0-.07.19v.37a.65.65,0,0,0,.05.2.89.89,0,0,0,.08.17.86.86,0,0,0,.1.16l.16.13a.36.36,0,0,0,.09.09h.16a1,1,0,0,0,.34.07h9.65A6.29,6.29,0,0,0,29,45a5,5,0,0,0,10,0,5.57,5.57,0,0,0-.11-1H43a1,1,0,0,0,1-1V37.21a.62.62,0,0,0-.07-.19V37l-.08-.09-.14-.16-.16-.1-.17-.09a.67.67,0,0,0-.2,0h-.37a.6.6,0,0,0-.19.06h-.06A3,3,0,0,1,41,37a3,3,0,0,1,0-6,2.94,2.94,0,0,1,1.5.41h.06a.6.6,0,0,0,.19.06h.37a.65.65,0,0,0,.2,0l.17-.08.16-.1.14-.16a.39.39,0,0,0,.08-.09v-.06a.62.62,0,0,0,.07-.19V20.89A5.37,5.37,0,0,0,45,21a5,5,0,0,0,0-10ZM14,16a5,5,0,0,0-5-5,5.57,5.57,0,0,0-1,.11V8h4.79A.6.6,0,0,0,13,7.94H13l.09-.09.16-.13a.86.86,0,0,0,.1-.16.89.89,0,0,0,.08-.17.65.65,0,0,0,0-.2V6.82a.62.62,0,0,0-.07-.19V6.57A3,3,0,1,1,19,5a2.94,2.94,0,0,1-.41,1.5v.06a.62.62,0,0,0-.07.19v.37a.65.65,0,0,0,.05.2.89.89,0,0,0,.08.17.86.86,0,0,0,.1.16l.16.13a.36.36,0,0,0,.09.09h.16a1,1,0,0,0,.34.07H24v3.11A5.59,5.59,0,0,0,23,11a5,5,0,0,0,0,10,5.57,5.57,0,0,0,1-.11V24H19.21a.6.6,0,0,0-.19.06H19l-.09.09-.16.13a.86.86,0,0,0-.1.16.89.89,0,0,0-.08.17.65.65,0,0,0-.05.2v.37a.62.62,0,0,0,.07.19v.06A3,3,0,1,1,13,27a2.94,2.94,0,0,1,.41-1.5v-.06a.62.62,0,0,0,.07-.19v-.37a.65.65,0,0,0-.05-.2.89.89,0,0,0-.08-.17.86.86,0,0,0-.1-.16l-.16-.13a.36.36,0,0,0-.09-.09h-.06a.6.6,0,0,0-.19-.06H8V20.89A5.57,5.57,0,0,0,9,21,5,5,0,0,0,14,16Zm2,20a5,5,0,0,0-5,5,5.57,5.57,0,0,0,.11,1H8V37.21A.62.62,0,0,0,7.93,37V37l-.08-.09-.14-.16-.16-.1-.17-.08a.34.34,0,0,0-.2,0H6.81a.6.6,0,0,0-.19.06H6.56A2.94,2.94,0,0,1,5,37a3,3,0,0,1,0-6,2.94,2.94,0,0,1,1.5.41h.06a.6.6,0,0,0,.19.06h.37a.65.65,0,0,0,.2,0l.17-.08.16-.1.14-.16A.39.39,0,0,0,7.87,31v-.06a.62.62,0,0,0,.07-.19V26h3.11A5.59,5.59,0,0,0,11,27a5,5,0,0,0,10,0,5.57,5.57,0,0,0-.11-1H24v4.79a.62.62,0,0,0,.07.19V31l.08.09.14.16.16.1.17.08a.65.65,0,0,0,.2.05h.37a.6.6,0,0,0,.19-.06h.06A3.08,3.08,0,0,1,27,31a3,3,0,0,1,0,6,2.94,2.94,0,0,1-1.5-.41h-.06a.6.6,0,0,0-.19-.06h-.37a.34.34,0,0,0-.2,0l-.17.08-.16.1-.14.16a.39.39,0,0,0-.08.09V37a.62.62,0,0,0-.07.19V42H20.89A5.57,5.57,0,0,0,21,41,5,5,0,0,0,16,36Zm20-2a5,5,0,0,0,5,5,5.57,5.57,0,0,0,1-.11V42H37.21a.6.6,0,0,0-.19.06H37l-.09.09-.16.13a.86.86,0,0,0-.1.16.89.89,0,0,0-.08.17.65.65,0,0,0-.05.2v.37a.62.62,0,0,0,.07.19v.06A3,3,0,1,1,31,45a2.94,2.94,0,0,1,.41-1.5v-.06a.62.62,0,0,0,.07-.19v-.37a.65.65,0,0,0-.05-.2.89.89,0,0,0-.08-.17.86.86,0,0,0-.1-.16l-.16-.13a.36.36,0,0,0-.09-.09h-.06a.6.6,0,0,0-.19-.06H26V38.89A5.57,5.57,0,0,0,27,39a5,5,0,0,0,0-10,5.57,5.57,0,0,0-1,.11V26h5.39a.81.81,0,0,0,.22,0h.16l.14-.1.18-.13h0a.75.75,0,0,0,.07-.12,1.18,1.18,0,0,0,.11-.19.74.74,0,0,0,0-.21v-.14h0a.74.74,0,0,0,0-.21.49.49,0,0,0,0-.17l-.1-.14L32,24.41h0a3,3,0,1,1,4.24-.24,2.72,2.72,0,0,1-.24.24h0l-.13.18-.1.14a.49.49,0,0,0,0,.17.74.74,0,0,0,0,.21h0v.14a.74.74,0,0,0,0,.21,1.18,1.18,0,0,0,.11.19.75.75,0,0,0,.07.12h0a1,1,0,0,0,.26.19.18.18,0,0,1,.07.05,1.1,1.1,0,0,0,.4.08H42V29.2a5.71,5.71,0,0,0-1-.2A5,5,0,0,0,36,34Zm9-15a2.94,2.94,0,0,1-1.5-.41h-.06a.6.6,0,0,0-.19-.06h-.37a.65.65,0,0,0-.2,0l-.17.08-.16.1-.14.16a.39.39,0,0,0-.08.09v.06a.62.62,0,0,0-.07.19V24H38.58a5,5,0,1,0-9.16,0H26V19.21a.62.62,0,0,0-.07-.19V19l-.08-.09-.14-.16-.16-.1-.17-.08a.65.65,0,0,0-.2-.05h-.37a.6.6,0,0,0-.19.06h-.06A3.08,3.08,0,0,1,23,19a3,3,0,0,1,0-6,2.94,2.94,0,0,1,1.5.41h.06a.6.6,0,0,0,.19.06h.37a.65.65,0,0,0,.2-.05l.17-.08.16-.1.14-.16a.39.39,0,0,0,.08-.09v-.06a.62.62,0,0,0,.07-.19V8h3.42a5,5,0,1,0,9.16,0H42v4.79a.62.62,0,0,0,.07.19V13l.08.09.14.16.16.1.17.08a.65.65,0,0,0,.2,0h.37a.6.6,0,0,0,.19-.06h.06A3.08,3.08,0,0,1,45,13a3,3,0,0,1,0,6Z"/></g></g></svg>