<svg xmlns="http://www.w3.org/2000/svg" viewBox="0 0 40.08 52"><defs><style>.cls-1{fill:none;stroke:#000;stroke-miterlimit:10;stroke-width:2px;}</style></defs><g id="Layer_2" data-name="Layer 2"><g id="Layer_1-2" data-name="Layer 1"><path d="M12.66,29.42a1.23,1.23,0,0,1,1.26-1.3,1.3,1.3,0,0,1,0,2.59A1.23,1.23,0,0,1,12.66,29.42Z"/><path d="M16.45,25.89c0-.85,0-1.58-.05-2.18h1.79l.1.92h0a2.4,2.4,0,0,1,2.07-1.08,1.94,1.94,0,0,1,1.88,1.16h0a3,3,0,0,1,.88-.82,2.44,2.44,0,0,1,1.31-.34c1.31,0,2.31.93,2.31,3v4H24.73V26.83c0-1-.32-1.57-1-1.57a1,1,0,0,0-1,.74,2,2,0,0,0-.08.55v4H20.59V26.72c0-.87-.31-1.46-1-1.46a1.09,1.09,0,0,0-1,.77,1.43,1.43,0,0,0-.08.53v4H16.45Z"/><polyline class="cls-1" points="28.66 1 28.66 11.41 39.08 11.41"/><polygon class="cls-1" points="1 51 39.08 51 39.08 11.41 28.66 1 1 1 1 51"/></g></g></svg>